<svg width="105" height="62" viewBox="0 0 105 62" fill="none" xmlns="http://www.w3.org/2000/svg">
<g clip-path="url(#clip0_943_127)">
<path d="M84.0236 44.6768H105.001V61.4763H84.02L78.7998 56.5609V49.6282L84.0236 44.6768Z" fill="#FFEF00"/>
<path d="M82.9716 53.0634C82.9716 53.2687 82.9107 53.4694 82.7967 53.6401C82.6826 53.8109 82.5205 53.9439 82.3308 54.0225C82.1411 54.101 81.9324 54.1216 81.731 54.0815C81.5297 54.0415 81.3447 53.9426 81.1995 53.7974C81.0544 53.6523 80.9555 53.4673 80.9155 53.266C80.8754 53.0646 80.896 52.8559 80.9745 52.6662C81.0531 52.4765 81.1861 52.3144 81.3568 52.2003C81.5276 52.0863 81.7282 52.0254 81.9336 52.0254C82.2089 52.0254 82.4729 52.1348 82.6676 52.3294C82.8622 52.5241 82.9716 52.7881 82.9716 53.0634Z" fill="#142029"/>
<path d="M18.826 13.3066L19.2328 13.159C19.5686 12.9839 19.8824 12.7696 20.1677 12.5206C20.554 12.1971 20.9184 11.8483 21.2585 11.4766C21.6659 11.0104 21.9859 10.4746 22.203 9.89488C22.4685 9.2334 22.6034 8.52676 22.6002 7.81399C22.6002 5.9035 21.7373 4.25782 20.0117 2.87696C18.286 1.4961 15.9311 0.805664 12.9469 0.805664H0.00195312V27.3269H13.7042C17.2167 27.3269 24.4927 26.6728 24.4927 19.7449C24.4927 14.4467 18.9496 13.3582 18.826 13.309M8.57874 7.02075H11.7385C12.3705 7.02075 12.8873 7.20716 13.289 7.57997C13.4782 7.75659 13.6291 7.97025 13.7323 8.20766C13.8355 8.44508 13.8887 8.70117 13.8887 8.96004C13.8887 9.2189 13.8355 9.475 13.7323 9.71241C13.6291 9.94983 13.4782 10.1635 13.289 10.3401C12.8889 10.7121 12.3721 10.8985 11.7385 10.8993H8.57874V7.02075ZM14.4794 20.4902C13.9753 20.9599 13.3057 21.211 12.6169 21.1886H8.57874V16.428H12.6169C13.3642 16.428 13.985 16.6572 14.4794 17.1156C14.7163 17.326 14.9051 17.585 15.0329 17.8749C15.1606 18.1648 15.2244 18.4789 15.2198 18.7957C15.2239 19.1142 15.16 19.4299 15.0323 19.7217C14.9046 20.0135 14.7161 20.2747 14.4794 20.4878" fill="#0046BE"/>
<path d="M46.4517 20.8886H33.6327V16.728H44.0996V10.6617H33.6327V7.25956H46.4829V0.805664H25.0547V27.3245H46.4517V20.8886Z" fill="#0046BE"/>
<path d="M68.3799 0.805664V7.25956H75.3894V27.3245H83.9146V7.25956H90.9229V0.805664H68.3799Z" fill="#0046BE"/>
<path d="M58.6837 20.4642C58.2141 20.8707 57.5636 21.0739 56.7324 21.0739C55.9012 21.0739 55.0351 20.8459 54.1343 20.3898C53.2342 19.9338 52.6342 19.567 52.3342 19.2894C52.1638 19.1322 52.015 18.9942 51.8854 18.8706L46.8271 23.6708L47.1476 23.9912C47.585 24.4174 48.0615 24.8015 48.5708 25.1385C49.2866 25.6274 50.0307 26.0734 50.7993 26.4741C51.6442 26.9181 52.6982 27.2974 53.9615 27.6118C55.2414 27.9281 56.5552 28.0865 57.8737 28.0834C61.2266 28.0834 63.8955 27.2141 65.8804 25.4757C67.8653 23.7372 68.8578 21.6411 68.8578 19.1874C68.8578 17.7697 68.5713 16.5249 67.9985 15.4528C67.4257 14.3808 66.7105 13.5731 65.8528 13.0299C64.9649 12.4709 64.0344 11.9826 63.0699 11.5694C62.2427 11.2052 61.3885 10.9059 60.515 10.6742L60.287 10.6166C59.5431 10.4555 58.8246 10.1943 58.1509 9.84015C57.5836 9.52574 57.3 9.16572 57.3 8.7601C57.2962 8.52456 57.3478 8.29142 57.4505 8.07945C57.5533 7.86747 57.7044 7.68258 57.8917 7.53965C58.2869 7.21963 58.8469 7.05963 59.5717 7.05963C61.3034 7.05963 62.3631 7.83606 62.9091 8.40009L67.9853 3.57827L67.8941 3.47146C67.6717 3.18825 67.2893 2.86463 66.7469 2.50062C66.1372 2.09716 65.5045 1.72972 64.852 1.40017C64.1319 1.03055 63.1951 0.713338 62.0414 0.448525C60.856 0.179163 59.6438 0.0451006 58.4281 0.0489069C55.2471 0.0489069 52.687 0.888945 50.7477 2.56902C48.8084 4.2491 47.8376 6.22479 47.8352 8.49609C47.8173 9.61584 48.0382 10.7266 48.4832 11.7542C48.9152 12.7143 49.4641 13.4783 50.1297 14.0463C50.8149 14.6267 51.5623 15.1294 52.3582 15.5452C53.0278 15.8984 53.7225 16.2016 54.4367 16.4525C54.5699 16.4993 54.7031 16.5473 54.8363 16.5893C55.6684 16.8549 56.4204 17.1017 57.0924 17.3297C57.6678 17.515 58.2224 17.7595 58.7473 18.0593C59.1777 18.3185 59.3933 18.627 59.3941 18.9846C59.3945 19.2687 59.3308 19.5493 59.2078 19.8055C59.0848 20.0617 58.9057 20.2868 58.6837 20.4642Z" fill="#0046BE"/>
<path d="M25.6431 42.6623L26.0499 42.5135C26.3854 42.3391 26.6988 42.1252 26.9835 41.8763C27.3698 41.5524 27.7343 41.2032 28.0744 40.831C28.4811 40.3651 28.8006 39.8297 29.0176 39.2506C29.2833 38.5891 29.4186 37.8825 29.416 37.1697C29.416 35.2576 28.5528 33.6115 26.8263 32.2314C25.0998 30.8514 22.7453 30.161 19.7628 30.1602H6.8418V56.6814H20.5224C24.0362 56.6814 31.3121 56.0273 31.3121 49.0994C31.3121 43.8012 25.7691 42.7139 25.6455 42.6647M15.4222 36.3764H18.5579C19.1916 36.3764 19.7088 36.5632 20.1096 36.9369C20.2987 37.1136 20.4495 37.3273 20.5525 37.5647C20.6556 37.8021 20.7088 38.0581 20.7088 38.3169C20.7088 38.5757 20.6556 38.8318 20.5525 39.0692C20.4495 39.3066 20.2987 39.5203 20.1096 39.697C19.7096 40.0706 19.1924 40.257 18.5579 40.2562H15.4198L15.4222 36.3764ZM21.3025 49.8483C20.7982 50.3179 20.1287 50.569 19.44 50.5467H15.4198V45.7825H19.434C20.1207 45.7599 20.7891 46.0066 21.2965 46.4701C21.533 46.6807 21.7216 46.9398 21.8494 47.2296C21.9771 47.5195 22.0411 47.8334 22.0369 48.1502C22.0419 48.47 21.9784 48.7872 21.8507 49.0805C21.723 49.3738 21.534 49.6364 21.2965 49.8507" fill="#0046BE"/>
<path d="M46.4827 45.9194C46.4827 46.7645 46.147 47.5749 45.5495 48.1724C44.9519 48.7699 44.1415 49.1056 43.2965 49.1056C42.4515 49.1056 41.6411 48.7699 41.0436 48.1724C40.446 47.5749 40.1104 46.7645 40.1104 45.9194V30.1699H31.5264V45.5186C31.5264 48.5583 32.7338 51.4734 34.883 53.6229C37.0322 55.7723 39.9473 56.98 42.9869 56.9803H43.5245C46.5644 56.9803 49.4797 55.7728 51.6292 53.6233C53.7787 51.4738 54.9862 48.5585 54.9862 45.5186V30.1699H46.4827V45.9194Z" fill="#0046BE"/>
<path d="M69.6485 39.1895L64.0274 30.1699H55.4326L65.3595 47.2203V56.6887H73.9375V47.2203L83.8631 30.1699H75.2695L69.6485 39.1895Z" fill="#0046BE"/>
<path d="M87.0477 37.7695L86.4645 39.62L86.4561 39.6452H86.6241L87.2073 37.7947L87.2157 37.7695H87.0477Z" fill="#0046BE"/>
<path d="M88.3891 39.3966L87.7747 37.7861H87.5371V39.6258H87.7111V38.0909L88.3039 39.6258H88.466L89.0648 38.0897V39.6258H89.2472V37.7861H89.0132L88.3891 39.3966Z" fill="#0046BE"/>
<path d="M90.1249 37.7861H89.6377V39.6258H90.1177C90.6853 39.6258 91.0382 39.2754 91.0382 38.7126V38.6898C91.0382 38.1329 90.6865 37.7861 90.1249 37.7861ZM90.8546 38.6898V38.709C90.8546 39.189 90.5845 39.4674 90.1141 39.4674H89.8201V37.9421H90.1129C90.5821 37.9421 90.8522 38.2098 90.8522 38.6898H90.8546Z" fill="#0046BE"/>
<path d="M85.2428 38.7543C85.3219 38.7482 85.3955 38.7118 85.4485 38.6528C85.5014 38.5938 85.5297 38.5167 85.5273 38.4375C85.5273 38.1975 85.3532 38.0775 85.0892 38.0775H84.6944V39.2907H84.878V38.7795H85.064L85.4013 39.2907H85.5969L85.2428 38.7543ZM84.8828 38.6487V38.2323H85.0844C85.2476 38.2323 85.3376 38.2851 85.3376 38.4375C85.3376 38.5755 85.2536 38.6439 85.0844 38.6439L84.8828 38.6487ZM85.0892 37.541C84.9352 37.5402 84.7825 37.57 84.6401 37.6286C84.4976 37.6871 84.3682 37.7734 84.2593 37.8823C84.1503 37.9912 84.0641 38.1207 84.0055 38.2631C83.9469 38.4056 83.9172 38.5582 83.918 38.7123C83.918 38.9439 83.9867 39.1704 84.1154 39.363C84.2441 39.5556 84.427 39.7057 84.641 39.7944C84.855 39.883 85.0905 39.9062 85.3177 39.861C85.5449 39.8158 85.7536 39.7043 85.9174 39.5405C86.0812 39.3767 86.1928 39.168 86.238 38.9408C86.2832 38.7136 86.26 38.4781 86.1713 38.2641C86.0827 38.05 85.9326 37.8671 85.7399 37.7384C85.5473 37.6097 85.3209 37.541 85.0892 37.541ZM85.0892 39.7299C84.8865 39.7311 84.688 39.6721 84.5189 39.5603C84.3498 39.4486 84.2176 39.2891 84.1392 39.1022C84.0608 38.9153 84.0397 38.7092 84.0785 38.5103C84.1173 38.3113 84.2144 38.1284 84.3573 37.9846C84.5002 37.8408 84.6826 37.7428 84.8813 37.7028C85.08 37.6628 85.2862 37.6827 85.4736 37.76C85.661 37.8373 85.8212 37.9685 85.9339 38.137C86.0467 38.3054 86.1069 38.5036 86.1069 38.7063C86.1112 38.8418 86.0877 38.9767 86.0379 39.1028C85.9881 39.2289 85.9129 39.3434 85.8171 39.4393C85.7213 39.5352 85.6069 39.6105 85.4809 39.6605C85.3549 39.7105 85.2199 39.7341 85.0844 39.7299H85.0892Z" fill="#0046BE"/>
</g>
<defs>
<clipPath id="clip0_943_127">
<rect width="105" height="61.4284" fill="white" transform="translate(0 0.0478516)"/>
</clipPath>
</defs>
</svg>
